<svg xmlns="http://www.w3.org/2000/svg" version="1.1" xmlns:xlink="http://www.w3.org/1999/xlink" xmlns:svgjs="http://svgjs.dev/svgjs" width="1500" height="276" viewBox="0 0 1500 276"><g transform="matrix(1,0,0,1,-0.9090909090911055,0.7175136627257643)"><svg viewBox="0 0 396 73" data-background-color="#d8f2ff" preserveAspectRatio="xMidYMid meet" height="276" width="1500" xmlns="http://www.w3.org/2000/svg" xmlns:xlink="http://www.w3.org/1999/xlink"><g id="tight-bounds" transform="matrix(1,0,0,1,0.24000000000003752,-0.1897771644165971)"><svg viewBox="0 0 395.5199999999999 73.37955432883318" height="73.37955432883318" width="395.5199999999999"><g><svg viewBox="0 0 485.945916585889 90.15598398813937" height="73.37955432883318" width="395.5199999999999"><g transform="matrix(1,0,0,1,90.42591658588898,12.460052779836914)"><svg viewBox="0 0 395.52 65.23587842846554" height="65.23587842846554" width="395.52"><g id="textblocktransform"><svg viewBox="0 0 395.52 65.23587842846554" height="65.23587842846554" width="395.52" id="textblock"><g><svg viewBox="0 0 395.52 65.23587842846554" height="65.23587842846554" width="395.52"><g transform="matrix(1,0,0,1,0,0)"><svg width="395.52" viewBox="2.2 -33.3 269.77000000000004 44.5" height="65.23587842846554" data-palette-color="#023047"><path d="M22.35-12.9L22.35-3.25Q22.35-2.85 22.45-2.38 22.55-1.9 22.78-1.5 23-1.1 23.28-0.8 23.55-0.5 23.95-0.5L23.95-0.5 23.95 0 17.5 0 17.5-0.5Q17.85-0.5 18.15-0.8 18.45-1.1 18.68-1.5 18.9-1.9 19-2.38 19.1-2.85 19.1-3.25L19.1-3.25 19.1-12.55Q19.1-14.35 18.6-15.7 18.1-17.05 17.25-17.95 16.4-18.85 15.33-19.28 14.25-19.7 13.15-19.7L13.15-19.7Q12.05-19.7 10.98-19.25 9.9-18.8 9.08-18.07 8.25-17.35 7.73-16.38 7.2-15.4 7.2-14.35L7.2-14.35 7.2-3.25Q7.2-2.85 7.3-2.38 7.4-1.9 7.63-1.5 7.85-1.1 8.13-0.8 8.4-0.5 8.8-0.5L8.8-0.5 8.8 0 2.3 0 2.3-0.5Q2.65-0.5 2.95-0.8 3.25-1.1 3.48-1.5 3.7-1.9 3.8-2.38 3.9-2.85 3.9-3.25L3.9-3.25 3.9-17.05Q3.9-17.9 3.65-18.68 3.4-19.45 2.2-19.5L2.2-19.5 2.2-19.95 7.2-21.55 7.2-18.8Q7.55-19.2 8.1-19.68 8.65-20.15 9.43-20.58 10.2-21 11.23-21.28 12.25-21.55 13.65-21.55L13.65-21.55Q16-21.55 17.65-20.75 19.3-19.95 20.35-18.68 21.4-17.4 21.88-15.88 22.35-14.35 22.35-12.9L22.35-12.9ZM48.95-10.1L31.6-10.1Q31.8-8.35 32.45-6.78 33.1-5.2 34.17-4 35.25-2.8 36.8-2.08 38.35-1.35 40.4-1.35L40.4-1.35Q41.5-1.35 42.72-1.68 43.95-2 45-2.6 46.05-3.2 46.87-4.08 47.7-4.95 48-6.05L48-6.05 48.45-6.05 48.45-2.3Q48.15-2.3 47.77-2.1 47.4-1.9 46.9-1.6L46.9-1.6Q45.9-1 44.2-0.33 42.5 0.35 39.7 0.35L39.7 0.35Q37.45 0.35 35.42-0.3 33.4-0.95 31.85-2.3 30.3-3.65 29.37-5.75 28.45-7.85 28.45-10.75L28.45-10.75Q28.45-12.6 29.07-14.5 29.7-16.4 30.97-17.93 32.25-19.45 34.25-20.4 36.25-21.35 39.05-21.35L39.05-21.35Q41.55-21.35 43.42-20.5 45.3-19.65 46.52-18.15 47.75-16.65 48.35-14.6 48.95-12.55 48.95-10.1L48.95-10.1ZM38.85-19.7L38.85-19.7Q37.1-19.7 35.82-19 34.55-18.3 33.65-17.2 32.75-16.1 32.25-14.7 31.75-13.3 31.6-11.9L31.6-11.9 45.85-11.9Q45.8-13.35 45.32-14.75 44.85-16.15 44-17.25 43.15-18.35 41.85-19.03 40.55-19.7 38.85-19.7ZM69.8 0L64.94 0 64.94-2.55 64.69-2.3Q63.45-1.05 61.82-0.35 60.2 0.35 57.89 0.35L57.89 0.35Q56.14 0.35 54.89-0.05 53.64-0.45 52.84-1.18 52.04-1.9 51.67-2.85 51.29-3.8 51.29-4.85L51.29-4.85Q51.29-6.55 52.22-7.85 53.14-9.15 54.89-10.15 56.64-11.15 59.17-11.98 61.7-12.8 64.94-13.6L64.94-13.6Q64.84-15.55 64.14-16.75 63.45-17.95 62.49-18.63 61.55-19.3 60.49-19.53 59.45-19.75 58.7-19.75L58.7-19.75Q57.39-19.75 56.42-19.35 55.45-18.95 54.72-18.32 53.99-17.7 53.49-16.98 52.99-16.25 52.7-15.6L52.7-15.6 52.24-15.6 52.24-19.25Q52.64-19.3 52.99-19.5 53.34-19.7 53.84-19.9L53.84-19.9Q54.59-20.2 55.89-20.78 57.2-21.35 59.55-21.35L59.55-21.35Q62.3-21.35 63.99-20.65 65.69-19.95 66.62-18.8 67.55-17.65 67.84-16.18 68.14-14.7 68.14-13.15L68.14-13.15 68.14-3.25Q68.14-2.25 68.59-1.38 69.05-0.5 69.8-0.5L69.8-0.5 69.8 0ZM64.39-4.15L64.94-4.75 64.94-11.9 64.44-11.8Q63.24-11.5 61.52-11 59.8-10.5 58.24-9.7 56.7-8.9 55.59-7.8 54.49-6.7 54.49-5.25L54.49-5.25Q54.49-3.65 55.8-2.6 57.09-1.55 59.2-1.55L59.2-1.55Q60.84-1.55 62.09-2.27 63.34-3 64.39-4.15L64.39-4.15ZM88.29-20.4L86.79-17.35Q86.19-18.35 85.54-18.6 84.89-18.85 84.04-18.85L84.04-18.85Q83.49-18.85 82.87-18.6 82.24-18.35 81.64-17.95 81.04-17.55 80.47-17.07 79.89-16.6 79.49-16.2L79.49-16.2 79.49-3.2Q79.49-2.8 79.59-2.35 79.69-1.9 79.92-1.48 80.14-1.05 80.42-0.78 80.69-0.5 81.09-0.5L81.09-0.5 81.09 0 74.59 0 74.59-0.5Q74.94-0.5 75.24-0.78 75.54-1.05 75.77-1.48 75.99-1.9 76.09-2.35 76.19-2.8 76.19-3.2L76.19-3.2 76.19-17.15Q76.19-17.85 75.74-18.55 75.29-19.25 74.44-19.45L74.44-19.45 74.44-19.85 79.49-21.35 79.49-18.35Q79.94-18.9 80.44-19.43 80.94-19.95 81.57-20.38 82.19-20.8 82.94-21.08 83.69-21.35 84.69-21.35L84.69-21.35Q85.39-21.35 86.49-21.05 87.59-20.75 88.29-20.4L88.29-20.4ZM101.94-19.3L96.34-19.3 96.34-7.25Q96.34-5.95 96.39-4.9 96.44-3.85 96.64-3.15 96.84-2.45 97.24-2.08 97.64-1.7 98.34-1.7L98.34-1.7Q99.39-1.7 100.31-2.7 101.24-3.7 101.49-5.1L101.49-5.1 101.94-5.1 101.94-1.45Q101.49-1.45 101.19-1.15L101.19-1.15Q100.79-0.8 100.06-0.4 99.34 0 97.89 0L97.89 0Q96.09 0 95.09-0.7 94.09-1.4 93.64-2.55 93.19-3.7 93.11-5.1 93.04-6.5 93.04-7.95L93.04-7.95 93.04-19.3 90.24-19.3 90.24-21 93.04-21 93.04-25.45Q93.04-26.3 92.81-27.03 92.59-27.75 91.34-27.8L91.34-27.8 91.34-28.3 96.34-29.9 96.34-21 101.94-21 101.94-19.3ZM116.19 0.35L116.19 0.35Q113.69 0.35 111.69-0.48 109.69-1.3 108.26-2.73 106.84-4.15 106.06-6.1 105.29-8.05 105.29-10.35L105.29-10.35Q105.29-12.8 106.14-14.83 106.99-16.85 108.49-18.3 109.99-19.75 112.04-20.55 114.09-21.35 116.49-21.35L116.49-21.35Q118.89-21.35 120.89-20.58 122.89-19.8 124.34-18.4 125.79-17 126.59-15.08 127.39-13.15 127.39-10.85L127.39-10.85Q127.39-8.7 126.66-6.68 125.94-4.65 124.51-3.1 123.09-1.55 121.01-0.6 118.94 0.35 116.19 0.35ZM115.89-19.7L115.89-19.7Q114.09-19.6 112.71-18.82 111.34-18.05 110.41-16.82 109.49-15.6 109.01-14.05 108.54-12.5 108.54-10.9L108.54-10.9Q108.54-9.05 109.11-7.33 109.69-5.6 110.76-4.25 111.84-2.9 113.34-2.1 114.84-1.3 116.69-1.3L116.69-1.3Q118.54-1.3 119.96-2.1 121.39-2.9 122.34-4.17 123.29-5.45 123.76-7.05 124.24-8.65 124.24-10.25L124.24-10.25Q124.24-11.9 123.74-13.58 123.24-15.25 122.19-16.63 121.14-18 119.56-18.85 117.99-19.7 115.89-19.7ZM150.29-5.7L150.29-1.8Q149.89-1.8 149.54-1.63 149.19-1.45 148.74-1.2L148.74-1.2Q147.89-0.7 146.59-0.18 145.28 0.35 143.19 0.35L143.19 0.35Q140.64 0.35 138.46-0.48 136.28-1.3 134.71-2.78 133.14-4.25 132.26-6.23 131.39-8.2 131.39-10.5L131.39-10.5Q131.39-12.65 132.16-14.6 132.94-16.55 134.39-18.05 135.84-19.55 137.96-20.45 140.09-21.35 142.78-21.35L142.78-21.35Q144.64-21.35 145.78-20.93 146.94-20.5 147.74-20.1L147.74-20.1Q148.19-19.85 148.61-19.7 149.04-19.55 149.49-19.55L149.49-19.55 149.49-15.75 148.99-15.75Q148.74-16.7 148.09-17.43 147.44-18.15 146.59-18.65 145.74-19.15 144.74-19.4 143.74-19.65 142.78-19.65L142.78-19.65Q140.74-19.65 139.19-18.93 137.64-18.2 136.64-17.03 135.64-15.85 135.14-14.35 134.64-12.85 134.64-11.25L134.64-11.25Q134.64-9.4 135.24-7.63 135.84-5.85 136.96-4.45 138.09-3.05 139.69-2.2 141.28-1.35 143.28-1.35L143.28-1.35Q144.69-1.35 145.86-1.75 147.03-2.15 147.86-2.8 148.69-3.45 149.19-4.23 149.69-5 149.79-5.7L149.79-5.7 150.29-5.7ZM164.13 0.35L164.13 0.35Q161.63 0.35 159.63-0.48 157.63-1.3 156.21-2.73 154.78-4.15 154.01-6.1 153.23-8.05 153.23-10.35L153.23-10.35Q153.23-12.8 154.08-14.83 154.93-16.85 156.43-18.3 157.93-19.75 159.98-20.55 162.03-21.35 164.43-21.35L164.43-21.35Q166.83-21.35 168.83-20.58 170.83-19.8 172.28-18.4 173.73-17 174.53-15.08 175.33-13.15 175.33-10.85L175.33-10.85Q175.33-8.7 174.61-6.68 173.88-4.65 172.46-3.1 171.03-1.55 168.96-0.6 166.88 0.35 164.13 0.35ZM163.83-19.7L163.83-19.7Q162.03-19.6 160.66-18.82 159.28-18.05 158.36-16.82 157.43-15.6 156.96-14.05 156.48-12.5 156.48-10.9L156.48-10.9Q156.48-9.05 157.06-7.33 157.63-5.6 158.71-4.25 159.78-2.9 161.28-2.1 162.78-1.3 164.63-1.3L164.63-1.3Q166.48-1.3 167.91-2.1 169.33-2.9 170.28-4.17 171.23-5.45 171.71-7.05 172.18-8.65 172.18-10.25L172.18-10.25Q172.18-11.9 171.68-13.58 171.18-15.25 170.13-16.63 169.08-18 167.51-18.85 165.93-19.7 163.83-19.7ZM186.53 0L179.98 0 179.98-0.5Q180.38-0.5 180.68-0.8 180.98-1.1 181.21-1.5 181.43-1.9 181.53-2.38 181.63-2.85 181.63-3.25L181.63-3.25 181.63-28.85Q181.63-29.7 181.38-30.45 181.13-31.2 179.88-31.25L179.88-31.25 179.88-31.75 184.93-33.3 184.93-3.25Q184.93-2.85 185.03-2.38 185.13-1.9 185.36-1.5 185.58-1.1 185.86-0.8 186.13-0.5 186.53-0.5L186.53-0.5 186.53 0ZM198.08 0L191.53 0 191.53-0.5Q191.93-0.5 192.23-0.8 192.53-1.1 192.75-1.5 192.98-1.9 193.08-2.38 193.18-2.85 193.18-3.25L193.18-3.25 193.18-28.85Q193.18-29.7 192.93-30.45 192.68-31.2 191.43-31.25L191.43-31.25 191.43-31.75 196.48-33.3 196.48-3.25Q196.48-2.85 196.58-2.38 196.68-1.9 196.9-1.5 197.13-1.1 197.4-0.8 197.68-0.5 198.08-0.5L198.08-0.5 198.08 0ZM222.98-10.1L205.63-10.1Q205.83-8.35 206.48-6.78 207.13-5.2 208.2-4 209.28-2.8 210.83-2.08 212.38-1.35 214.43-1.35L214.43-1.35Q215.53-1.35 216.75-1.68 217.98-2 219.03-2.6 220.08-3.2 220.9-4.08 221.73-4.95 222.03-6.05L222.03-6.05 222.48-6.05 222.48-2.3Q222.18-2.3 221.8-2.1 221.43-1.9 220.93-1.6L220.93-1.6Q219.93-1 218.23-0.33 216.53 0.35 213.73 0.35L213.73 0.35Q211.48 0.35 209.45-0.3 207.43-0.95 205.88-2.3 204.33-3.65 203.4-5.75 202.48-7.85 202.48-10.75L202.48-10.75Q202.48-12.6 203.1-14.5 203.73-16.4 205-17.93 206.28-19.45 208.28-20.4 210.28-21.35 213.08-21.35L213.08-21.35Q215.58-21.35 217.45-20.5 219.33-19.65 220.55-18.15 221.78-16.65 222.38-14.6 222.98-12.55 222.98-10.1L222.98-10.1ZM212.88-19.7L212.88-19.7Q211.13-19.7 209.85-19 208.58-18.3 207.68-17.2 206.78-16.1 206.28-14.7 205.78-13.3 205.63-11.9L205.63-11.9 219.88-11.9Q219.83-13.35 219.35-14.75 218.88-16.15 218.03-17.25 217.18-18.35 215.88-19.03 214.58-19.7 212.88-19.7ZM237.52 9.3L237.52 9.3Q239.02 9.3 240.37 9.03 241.72 8.75 242.75 8.25 243.77 7.75 244.37 7.05 244.97 6.35 244.97 5.55L244.97 5.55Q244.97 4.7 244.15 4.1 243.32 3.5 241.92 3.05 240.52 2.6 238.67 2.27 236.82 1.95 234.82 1.6L234.82 1.6 232.27 1.15Q231.12 2.05 230.67 3.05 230.22 4.05 230.22 4.8L230.22 4.8Q230.22 5.85 230.8 6.68 231.37 7.5 232.35 8.1 233.32 8.7 234.65 9 235.97 9.3 237.52 9.3ZM234.02-1.7L240.27-0.7Q242.27-0.4 243.6 0.1 244.92 0.6 245.72 1.28 246.52 1.95 246.82 2.78 247.12 3.6 247.12 4.55L247.12 4.55Q247.12 6.25 246.2 7.5 245.27 8.75 243.8 9.58 242.32 10.4 240.45 10.8 238.57 11.2 236.62 11.2L236.62 11.2Q234.72 11.2 232.97 10.83 231.22 10.45 229.87 9.7 228.52 8.95 227.72 7.83 226.92 6.7 226.92 5.25L226.92 5.25Q226.92 3.95 227.72 2.78 228.52 1.6 230.32 0.45L230.32 0.45Q228.57-0.45 227.65-1.98 226.72-3.5 226.72-5.1L226.72-5.1Q226.72-6.05 227.17-6.98 227.62-7.9 228.62-8.7L228.62-8.7Q227.77-9.7 227.42-10.7 227.07-11.7 227.07-12.85L227.07-12.85Q227.07-14.65 227.82-16.2 228.57-17.75 229.87-18.9 231.17-20.05 232.92-20.7 234.67-21.35 236.67-21.35L236.67-21.35Q238.77-21.35 240.67-20.63 242.57-19.9 243.87-18.75L243.87-18.75 247.47-18.75 247.47-16.95 245.17-16.95Q245.52-16.2 245.87-15.18 246.22-14.15 246.22-13.05L246.22-13.05Q246.22-11.45 245.47-10.03 244.72-8.6 243.4-7.53 242.07-6.45 240.3-5.83 238.52-5.2 236.52-5.2L236.52-5.2Q234.67-5.2 232.92-5.75 231.17-6.3 229.82-7.35L229.82-7.35Q229.27-7 229.07-6.48 228.87-5.95 228.87-5.4L228.87-5.4Q228.87-3.8 230.32-2.93 231.77-2.05 234.02-1.7L234.02-1.7ZM236.07-19.6L236.07-19.6Q234.87-19.6 233.82-19.18 232.77-18.75 231.97-18 231.17-17.25 230.7-16.18 230.22-15.1 230.22-13.75L230.22-13.75Q230.22-12.1 230.9-10.8 231.57-9.5 232.62-8.65 233.67-7.8 234.95-7.35 236.22-6.9 237.37-6.9L237.37-6.9Q238.62-6.9 239.65-7.38 240.67-7.85 241.42-8.68 242.17-9.5 242.57-10.6 242.97-11.7 242.97-12.9L242.97-12.9Q242.97-14.4 242.37-15.65 241.77-16.9 240.8-17.78 239.82-18.65 238.57-19.13 237.32-19.6 236.07-19.6ZM271.97-10.1L254.62-10.1Q254.82-8.35 255.47-6.78 256.12-5.2 257.2-4 258.27-2.8 259.82-2.08 261.37-1.35 263.42-1.35L263.42-1.35Q264.52-1.35 265.75-1.68 266.97-2 268.02-2.6 269.07-3.2 269.9-4.08 270.72-4.95 271.02-6.05L271.02-6.05 271.47-6.05 271.47-2.3Q271.17-2.3 270.8-2.1 270.42-1.9 269.92-1.6L269.92-1.6Q268.92-1 267.22-0.33 265.52 0.35 262.72 0.35L262.72 0.35Q260.47 0.35 258.45-0.3 256.42-0.95 254.87-2.3 253.32-3.65 252.4-5.75 251.47-7.85 251.47-10.75L251.47-10.75Q251.47-12.6 252.1-14.5 252.72-16.4 254-17.93 255.27-19.45 257.27-20.4 259.27-21.35 262.07-21.35L262.07-21.35Q264.57-21.35 266.45-20.5 268.32-19.65 269.55-18.15 270.77-16.65 271.37-14.6 271.97-12.55 271.97-10.1L271.97-10.1ZM261.87-19.7L261.87-19.7Q260.12-19.7 258.85-19 257.57-18.3 256.67-17.2 255.77-16.1 255.27-14.7 254.77-13.3 254.62-11.9L254.62-11.9 268.87-11.9Q268.82-13.35 268.35-14.75 267.87-16.15 267.02-17.25 266.17-18.35 264.87-19.03 263.57-19.7 261.87-19.7Z" opacity="1" transform="matrix(1,0,0,1,0,0)" fill="#023047" class="wordmark-text-0" data-fill-palette-color="primary" id="text-0"></path></svg></g></svg></g></svg></g></svg></g><g><svg viewBox="0 0 75.02529135001055 90.15598398813937" height="90.15598398813937" width="75.02529135001055"><g><svg xmlns="http://www.w3.org/2000/svg" xmlns:xlink="http://www.w3.org/1999/xlink" version="1.1" x="0" y="0" viewBox="13.05 5.598000000000005 73.89999999999999 88.80375" enable-background="new 0 0 100 100" xml:space="preserve" height="90.15598398813937" width="75.02529135001055" class="icon-icon-0" data-fill-palette-color="accent" id="icon-0"><path fill-rule="evenodd" clip-rule="evenodd" d="M72.839 13.551c1.102 0.868 2.158 1.83 3.166 2.886 7.297 7.25 10.945 15.988 10.945 26.217 0 10.182-3.648 18.874-10.945 26.077-0.117 0.164-0.234 0.387-0.352 0.668-0.281 0.165-0.539 0.399-0.773 0.704L53.976 92.097c-2.697 3.073-5.36 3.073-7.988 0L24.345 69.223c-0.117-0.164-0.234-0.328-0.352-0.492C16.697 61.528 13.05 52.836 13.05 42.654c0-10.229 3.647-18.967 10.943-26.217 1.01-1.056 2.088-2.018 3.238-2.886 6.451-5.302 14.064-7.953 22.838-7.953C58.75 5.598 66.34 8.249 72.839 13.551zM82.058 42.548c0-8.798-3.143-16.34-9.431-22.627-6.287-6.287-13.853-9.431-22.698-9.431-8.797 0-16.34 3.144-22.627 9.431S17.87 33.75 17.87 42.548s3.145 16.34 9.432 22.627c6.287 6.288 13.83 9.431 22.627 9.431 8.846 0 16.411-3.144 22.698-9.431C78.915 58.889 82.058 51.346 82.058 42.548zM51.196 43.569c0.281-0.117 0.68-0.258 1.196-0.422l7.706-2.287c0.282 0.962 0.682 2.404 1.197 4.328 0.117 0.61 0.141 1.208 0.07 1.795-0.164 0.563-0.445 1.091-0.845 1.583-0.376 0.399-0.681 0.739-0.915 1.021-0.328 0.352-0.668 0.646-1.021 0.88-3.683 2.721-7.812 3.707-12.387 2.956-3.261-0.516-6.042-1.9-8.341-4.152-0.68-0.681-1.138-1.384-1.372-2.111-0.234-0.798-0.211-1.654 0.07-2.569 0.023-0.211 0.376-1.455 1.056-3.73l0.563 0.176c2.111 0.657 5.267 1.619 9.466 2.886 0.845 0.234 1.631 0.234 2.357 0C50.352 43.803 50.751 43.686 51.196 43.569zM62.422 38.396c-0.751-0.798-1.783-1.513-3.097-2.146-1.502-0.774-3.145-1.42-4.927-1.936-1.501-0.446-3.249-0.821-5.243-1.126-0.47-0.118-0.868-0.083-1.197 0.105-0.281 0.211-0.445 0.469-0.492 0.774-0.023 0.329 0.082 0.61 0.316 0.845 0.188 0.234 0.552 0.399 1.092 0.493 2.393 0.352 4.691 0.927 6.896 1.725 0.47 0.164 1.044 0.41 1.725 0.739 0.375 0.164 0.938 0.399 1.689 0.704l-0.07 0.176c-0.117 0.047-0.188 0.07-0.211 0.07-4.364 1.36-7.566 2.346-9.607 2.956-0.141 0.047-0.305 0.071-0.493 0.071-0.163 0-0.34-0.023-0.528-0.071-0.961-0.328-3.283-1.056-6.967-2.182-7.25-2.182-12.117-3.66-14.604-4.434-0.164-0.07-0.305-0.152-0.423-0.246-0.211-0.117-0.328-0.234-0.352-0.352-0.164-0.234-0.164-0.469 0-0.704 0.117-0.258 0.352-0.445 0.704-0.563 9.924-3.05 17.149-5.255 21.678-6.616 0.164-0.023 0.363-0.036 0.599-0.036 0.164 0 0.352 0.012 0.563 0.036 3.965 1.22 9.889 3.026 17.771 5.419l3.906 1.267c0.469 0.117 0.703 0.352 0.703 0.704 0 0.258-0.117 0.54-0.352 0.845-0.047 0.047-0.129 0.105-0.246 0.176-0.164 0.047-0.258 0.07-0.281 0.07l-6.088 1.865c-0.117 0.047-0.294 0.106-0.528 0.176 0.164 0.282 0.399 0.681 0.704 1.197 0.258 0.493 0.48 0.88 0.668 1.161 0.117 0.235 0.281 0.411 0.492 0.528 0.588 0.281 0.963 0.727 1.127 1.337 0.211 0.586 0.129 1.138-0.246 1.654-0.141 0.211-0.234 0.434-0.282 0.669-0.046 0.211-0.022 0.434 0.071 0.668 0 0.07 0.012 0.211 0.035 0.422 0.047 0.164 0.07 0.281 0.07 0.352 0.516 2.041 1.36 3.93 2.533 5.666 1.104 1.619 2.498 3.132 4.188 4.54l0.422 0.317c-0.609 0.586-1.172 1.079-1.688 1.478-0.634 0.445-1.267 0.774-1.9 0.985-0.61 0.188-1.22 0.247-1.829 0.176-0.54-0.047-1.057-0.247-1.549-0.599-0.353-0.281-0.716-0.704-1.092-1.267-0.469-0.728-0.844-1.548-1.125-2.463-0.235-0.751-0.435-1.63-0.599-2.639-0.282-2.135-0.341-4.505-0.177-7.108 0.023-0.141 0-0.27-0.07-0.387-0.047-0.141-0.129-0.27-0.246-0.387-0.352-0.305-0.574-0.704-0.668-1.197-0.07-0.446 0.012-0.868 0.246-1.267 0.164-0.235 0.223-0.469 0.176-0.704 0-0.165-0.07-0.387-0.211-0.669C63.032 39.147 62.703 38.725 62.422 38.396z" fill="#b1e5ff" data-fill-palette-color="accent"></path></svg></g></svg></g></svg></g><defs></defs></svg><rect width="395.5199999999999" height="73.37955432883318" fill="none" stroke="none" visibility="hidden"></rect></g></svg></g></svg>