<svg xmlns="http://www.w3.org/2000/svg" version="1.1" xmlns:xlink="http://www.w3.org/1999/xlink" xmlns:svgjs="http://svgjs.dev/svgjs" width="1500" height="246" viewBox="0 0 1500 246"><g transform="matrix(1,0,0,1,-0.9090909090909918,0.5188860415830447)"><svg viewBox="0 0 396 65" data-background-color="#d8f2ff" preserveAspectRatio="xMidYMid meet" height="246" width="1500" xmlns="http://www.w3.org/2000/svg" xmlns:xlink="http://www.w3.org/1999/xlink"><g id="tight-bounds" transform="matrix(1,0,0,1,0.2400000000000091,-0.13710403537763227)"><svg viewBox="0 0 395.52 65.27420807075526" height="65.27420807075526" width="395.52"><g><svg viewBox="0 0 473.97637095452035 78.22216893787127" height="65.27420807075526" width="395.52"><g transform="matrix(1,0,0,1,78.4563709545204,10.810733912542272)"><svg viewBox="0 0 395.52 56.60070111278673" height="56.60070111278673" width="395.52"><g id="textblocktransform"><svg viewBox="0 0 395.52 56.60070111278673" height="56.60070111278673" width="395.52" id="textblock"><g><svg viewBox="0 0 395.52 56.60070111278673" height="56.60070111278673" width="395.52"><g transform="matrix(1,0,0,1,0,0)"><svg width="395.52" viewBox="1.1444444444444442 -35 314.42555555555555 45" height="56.60070111278673" data-palette-color="#023047"><path d="M7.35 0.15L7.35 0.15Q5.5 0.15 4-1.33 2.5-2.8 2.5-5.45L2.5-5.45Q2.5-6.75 2.85-8.4 3.2-10.05 3.63-11.75 4.05-13.45 4.4-14.95 4.75-16.45 4.75-17.4L4.75-17.4Q4.75-18.4 4.35-18.98 3.95-19.55 3.3-19.55L3.3-19.55Q2.45-19.55 1.45-18.55L1.45-18.55 1.15-18.75Q1.1-19.55 1.5-20.65 1.9-21.75 2.73-22.78 3.55-23.8 4.85-24.5 6.15-25.2 7.95-25.2L7.95-25.2Q10.6-25.2 11.88-23.68 13.15-22.15 13.15-19.95L13.15-19.95Q13.15-19.15 13-18.4L13-18.4Q14.05-19.95 15.6-21.53 17.15-23.1 19.03-24.15 20.9-25.2 22.9-25.2L22.9-25.2Q25.25-25.2 26.1-23.7 26.95-22.2 26.95-19.95L26.95-19.95Q26.95-17.85 26.5-15.45 26.05-13.05 25.6-10.83 25.15-8.6 25.15-7.1L25.15-7.1Q25.15-5.1 26.3-5.1L26.3-5.1Q26.9-5.1 27.35-5.48 27.8-5.85 27.95-6.2L27.95-6.2 28.3-6.05Q28.3-4.2 27.28-2.8 26.25-1.4 24.7-0.63 23.15 0.15 21.55 0.15L21.55 0.15Q19.6 0.15 18.1-1.2 16.6-2.55 16.6-5.6L16.6-5.6Q16.6-7.4 17.07-9.5 17.55-11.6 18-13.55 18.45-15.5 18.45-16.75L18.45-16.75Q18.45-17.5 18.18-17.93 17.9-18.35 17.2-18.35L17.2-18.35Q16.05-18.35 14.68-17.3 13.3-16.25 12.33-14.5 11.35-12.75 11.35-10.65L11.35-10.65Q11.35-9.3 11.68-8.05 12-6.8 12-5.35L12-5.35Q12-2.65 10.6-1.25 9.2 0.15 7.35 0.15ZM41.7 0.35L41.7 0.35Q38.05 0.35 35.65-1.13 33.25-2.6 32.05-5.03 30.85-7.45 30.85-10.25L30.85-10.25Q30.85-12.9 31.87-15.58 32.9-18.25 34.87-20.45 36.85-22.65 39.67-24 42.5-25.35 46.05-25.35L46.05-25.35Q50.45-25.35 52.47-23.38 54.5-21.4 54.5-18.6L54.5-18.6Q54.5-16.2 53.22-14.18 51.95-12.15 49.85-10.93 47.75-9.7 45.25-9.7L45.25-9.7Q43.95-9.7 42.6-10.1 41.25-10.5 39.95-11.35L39.95-11.35Q40.2-8.25 41.75-6.85 43.3-5.45 45.45-5.45L45.45-5.45Q46.95-5.45 48.45-6.03 49.95-6.6 51.22-7.53 52.5-8.45 53.2-9.5L53.2-9.5 53.55-9.25Q53.55-6.65 52.47-4.83 51.4-3 49.65-1.85 47.9-0.7 45.82-0.18 43.75 0.35 41.7 0.35ZM42.85-13.15L42.85-13.15Q44.45-13.15 45.45-14.08 46.45-15 46.95-16.25 47.45-17.5 47.45-18.45L47.45-18.45Q47.45-19.6 46.8-20.38 46.15-21.15 45-21.15L45-21.15Q44.1-21.15 43.02-20.5 41.95-19.85 41.1-18.28 40.25-16.7 40-13.9L40-13.9Q41.6-13.15 42.85-13.15ZM75.2 0.25L75.2 0.25Q73.45 0.25 72.15-0.9 70.84-2.05 70.84-4.65L70.84-4.65Q70.84-4.9 70.84-5.15 70.84-5.4 70.9-5.65L70.9-5.65Q69.4-2.65 67.52-1.23 65.65 0.2 63.75 0.2L63.75 0.2Q62 0.2 60.45-1.03 58.9-2.25 57.95-4.65 57-7.05 57-10.45L57-10.45Q57-13.95 57.97-16.7 58.95-19.45 60.55-21.35 62.15-23.25 64.05-24.23 65.95-25.2 67.75-25.2L67.75-25.2Q69.75-25.2 71.34-23.98 72.95-22.75 73.55-20.1L73.55-20.1Q73.7-20.95 73.77-21.65 73.84-22.35 73.84-22.6L73.84-22.6Q73.9-23.95 75.22-24.6 76.55-25.25 78.15-25.25L78.15-25.25Q79.55-25.25 80.8-24.7 82.05-24.15 82.5-22.85L82.5-22.85 82.59-22.55Q82-21.2 81.4-19.3 80.8-17.4 80.3-15.33 79.8-13.25 79.5-11.28 79.2-9.3 79.2-7.8L79.2-7.8Q79.2-6.15 79.55-5.53 79.9-4.9 80.4-4.9L80.4-4.9Q81.25-4.9 81.95-6.1L81.95-6.1 82.34-5.9Q82.34-4.2 81.25-2.8 80.15-1.4 78.5-0.58 76.84 0.25 75.2 0.25ZM67.05-6.1L67.05-6.1Q68.34-6.1 69.92-8.43 71.5-10.75 72.65-15.1L72.65-15.1Q72.75-15.55 72.84-15.98 72.95-16.4 73-16.8L73-16.8Q72.2-18.65 71.32-19.43 70.45-20.2 69.59-20.2L69.59-20.2Q68.34-20.2 67.27-18.88 66.2-17.55 65.52-15.55 64.84-13.55 64.84-11.55L64.84-11.55Q64.84-8.8 65.47-7.45 66.09-6.1 67.05-6.1ZM91.04 0.2L91.04 0.2Q89.24 0.2 87.84-1.28 86.44-2.75 86.44-5.45L86.44-5.45Q86.44-6.75 86.74-8.4 87.04-10.05 87.44-11.78 87.84-13.5 88.14-15.03 88.44-16.55 88.44-17.55L88.44-17.55Q88.44-18.6 88.07-19.23 87.69-19.85 87.09-19.85L87.09-19.85Q86.14-19.85 85.14-18.55L85.14-18.55 84.84-18.75Q84.79-19.55 85.19-20.65 85.59-21.75 86.44-22.78 87.29-23.8 88.62-24.5 89.94-25.2 91.74-25.2L91.74-25.2Q94.39-25.2 95.59-23.68 96.79-22.15 96.79-20L96.79-20Q96.79-19.65 96.77-19.28 96.74-18.9 96.69-18.55L96.69-18.55Q98.49-21.8 100.47-23.53 102.44-25.25 104.14-25.25L104.14-25.25Q105.74-25.25 106.49-24 107.24-22.75 107.24-21L107.24-21Q107.24-19.4 106.62-17.75 105.99-16.1 104.77-15.03 103.54-13.95 101.79-14L101.79-14 101.59-14.1Q101.54-15.4 100.74-16.15 99.94-16.9 98.94-16.9L98.94-16.9Q97.59-16.9 96.42-15.55 95.24-14.2 95.24-11.65L95.24-11.65Q95.24-10.1 95.59-8.3 95.94-6.5 95.94-5.25L95.94-5.25Q95.94-3.75 95.24-2.5 94.54-1.25 93.44-0.53 92.34 0.2 91.04 0.2ZM115.84 0.2L115.84 0.2Q114.24 0.2 112.82-0.53 111.39-1.25 110.52-2.8 109.64-4.35 109.64-6.75L109.64-6.75Q109.64-8.05 109.89-10.15 110.14-12.25 110.57-14.75 110.99-17.25 111.44-19.75L111.44-19.75Q110.44-19.7 109.52-19.55 108.59-19.4 107.69-19.2L107.69-19.2 107.59-19.55Q108.59-20.75 109.69-21.6 110.79-22.45 111.99-23L111.99-23Q112.64-26.3 113.09-28.73 113.54-31.15 113.54-31.6L113.54-31.6Q113.54-32.45 114.87-33 116.19-33.55 117.84-33.55L117.84-33.55Q119.29-33.55 120.57-33 121.84-32.45 122.29-31.15L122.29-31.15Q121.99-30.85 121.44-28.93 120.89-27 120.29-24.25L120.29-24.25Q121.24-24.2 122.24-24.15 123.24-24.1 124.29-24L124.29-24Q124.39-23.7 124.44-23.35 124.49-23 124.49-22.6L124.49-22.6Q124.49-21.85 124.27-20.98 124.04-20.1 123.74-19.4L123.74-19.4Q122.54-19.5 121.49-19.63 120.44-19.75 119.44-19.8L119.44-19.8Q119.04-17.65 118.72-15.5 118.39-13.35 118.22-11.6 118.04-9.85 118.04-8.85L118.04-8.85Q118.04-6.75 118.82-6.05 119.59-5.35 120.69-5.35L120.69-5.35Q121.69-5.35 122.49-5.75 123.29-6.15 123.64-6.7L123.64-6.7 124.14-6.55Q123.84-4.5 122.54-2.98 121.24-1.45 119.44-0.63 117.64 0.2 115.84 0.2ZM137.29 0.35L137.29 0.35Q133.54 0.35 131.09-1.15 128.64-2.65 127.46-5.13 126.29-7.6 126.29-10.4L126.29-10.4Q126.29-13.05 127.26-15.7 128.24-18.35 130.11-20.53 131.99-22.7 134.69-24.03 137.39-25.35 140.89-25.35L140.89-25.35Q144.64-25.35 147.06-23.83 149.49-22.3 150.66-19.8 151.84-17.3 151.84-14.45L151.84-14.45Q151.84-11.85 150.89-9.22 149.94-6.6 148.06-4.42 146.19-2.25 143.49-0.95 140.79 0.35 137.29 0.35ZM138.64-3.9L138.64-3.9Q139.99-3.9 140.89-5.3 141.79-6.7 142.24-8.88 142.69-11.05 142.69-13.3L142.69-13.3Q142.69-15.3 142.31-17.07 141.94-18.85 141.19-19.98 140.44-21.1 139.24-21.1L139.24-21.1Q137.94-21.1 137.01-19.7 136.09-18.3 135.64-16.15 135.19-14 135.19-11.7L135.19-11.7Q135.19-9.7 135.56-7.93 135.94-6.15 136.69-5.03 137.44-3.9 138.64-3.9ZM164.39 0.35L164.39 0.35Q161.09 0.35 158.81-1.15 156.54-2.65 155.39-5.08 154.24-7.5 154.24-10.3L154.24-10.3Q154.24-12.95 155.26-15.6 156.29-18.25 158.29-20.48 160.29-22.7 163.16-24.03 166.04-25.35 169.79-25.35L169.79-25.35Q173.49-25.35 175.29-23.88 177.09-22.4 177.09-20.65L177.09-20.65Q177.09-18.8 175.24-17.25 173.39-15.7 169.84-15.7L169.84-15.7Q170.04-16.45 170.16-17.23 170.29-18 170.29-18.7L170.29-18.7Q170.29-19.75 169.84-20.48 169.39-21.2 168.24-21.2L168.24-21.2Q167.19-21.2 166.01-20.25 164.84-19.3 164.01-17.45 163.19-15.6 163.19-12.9L163.19-12.9Q163.19-10.25 164.06-8.6 164.94-6.95 166.34-6.23 167.74-5.5 169.29-5.5L169.29-5.5Q171.34-5.5 173.24-6.58 175.14-7.65 175.99-9.55L175.99-9.55 176.49-9.35Q176.49-6.75 175.31-4.93 174.14-3.1 172.29-1.93 170.44-0.75 168.34-0.2 166.24 0.35 164.39 0.35ZM190.08 0.35L190.08 0.35Q186.33 0.35 183.88-1.15 181.43-2.65 180.26-5.13 179.08-7.6 179.08-10.4L179.08-10.4Q179.08-13.05 180.06-15.7 181.03-18.35 182.91-20.53 184.78-22.7 187.48-24.03 190.18-25.35 193.68-25.35L193.68-25.35Q197.43-25.35 199.86-23.83 202.28-22.3 203.46-19.8 204.63-17.3 204.63-14.45L204.63-14.45Q204.63-11.85 203.68-9.22 202.73-6.6 200.86-4.42 198.98-2.25 196.28-0.95 193.58 0.35 190.08 0.35ZM191.43-3.9L191.43-3.9Q192.78-3.9 193.68-5.3 194.58-6.7 195.03-8.88 195.48-11.05 195.48-13.3L195.48-13.3Q195.48-15.3 195.11-17.07 194.73-18.85 193.98-19.98 193.23-21.1 192.03-21.1L192.03-21.1Q190.73-21.1 189.81-19.7 188.88-18.3 188.43-16.15 187.98-14 187.98-11.7L187.98-11.7Q187.98-9.7 188.36-7.93 188.73-6.15 189.48-5.03 190.23-3.9 191.43-3.9ZM213.23 0.2L213.23 0.2Q211.88 0.2 210.6-0.48 209.33-1.15 208.53-2.65 207.73-4.15 207.73-6.5L207.73-6.5Q207.73-8.6 208.31-11.43 208.88-14.25 209.6-17.3 210.33-20.35 210.88-23.25 211.43-26.15 211.38-28.4L211.38-28.4Q211.38-30.55 210.88-31.45L210.88-31.45 210.83-31.6Q211.38-33.2 212.78-34.1 214.18-35 215.73-35L215.73-35Q217.48-35 218.85-33.68 220.23-32.35 220.23-29.25L220.23-29.25Q220.23-27.6 219.83-25.33 219.43-23.05 218.88-20.48 218.33-17.9 217.75-15.4 217.18-12.9 216.78-10.8 216.38-8.7 216.38-7.35L216.38-7.35Q216.38-5.95 216.78-5.43 217.18-4.9 217.68-4.9L217.68-4.9Q218.23-4.9 218.73-5.33 219.23-5.75 219.38-6.1L219.38-6.1 219.78-6Q219.73-4.2 218.75-2.8 217.78-1.4 216.31-0.6 214.83 0.2 213.23 0.2ZM228.53 0.2L228.53 0.2Q227.18 0.2 225.9-0.48 224.63-1.15 223.83-2.65 223.03-4.15 223.03-6.5L223.03-6.5Q223.03-8.6 223.6-11.43 224.18-14.25 224.9-17.3 225.63-20.35 226.18-23.25 226.73-26.15 226.68-28.4L226.68-28.4Q226.68-30.55 226.18-31.45L226.18-31.45 226.13-31.6Q226.68-33.2 228.08-34.1 229.48-35 231.03-35L231.03-35Q232.78-35 234.15-33.68 235.53-32.35 235.53-29.25L235.53-29.25Q235.53-27.6 235.13-25.33 234.73-23.05 234.18-20.48 233.63-17.9 233.05-15.4 232.48-12.9 232.08-10.8 231.68-8.7 231.68-7.35L231.68-7.35Q231.68-5.95 232.08-5.43 232.48-4.9 232.98-4.9L232.98-4.9Q233.53-4.9 234.03-5.33 234.53-5.75 234.68-6.1L234.68-6.1 235.08-6Q235.03-4.2 234.05-2.8 233.08-1.4 231.6-0.6 230.13 0.2 228.53 0.2ZM248.88 0.35L248.88 0.35Q245.23 0.35 242.83-1.13 240.43-2.6 239.23-5.03 238.03-7.45 238.03-10.25L238.03-10.25Q238.03-12.9 239.05-15.58 240.08-18.25 242.05-20.45 244.03-22.65 246.85-24 249.68-25.35 253.23-25.35L253.23-25.35Q257.63-25.35 259.65-23.38 261.68-21.4 261.68-18.6L261.68-18.6Q261.68-16.2 260.4-14.18 259.13-12.15 257.03-10.93 254.93-9.7 252.43-9.7L252.43-9.7Q251.13-9.7 249.78-10.1 248.43-10.5 247.13-11.35L247.13-11.35Q247.38-8.25 248.93-6.85 250.48-5.45 252.63-5.45L252.63-5.45Q254.13-5.45 255.63-6.03 257.13-6.6 258.4-7.53 259.68-8.45 260.38-9.5L260.38-9.5 260.73-9.25Q260.73-6.65 259.65-4.83 258.58-3 256.83-1.85 255.08-0.7 253-0.18 250.93 0.35 248.88 0.35ZM250.03-13.15L250.03-13.15Q251.63-13.15 252.63-14.08 253.63-15 254.13-16.25 254.63-17.5 254.63-18.45L254.63-18.45Q254.63-19.6 253.98-20.38 253.33-21.15 252.18-21.15L252.18-21.15Q251.28-21.15 250.2-20.5 249.13-19.85 248.28-18.28 247.43-16.7 247.18-13.9L247.18-13.9Q248.78-13.15 250.03-13.15ZM276.32 10L276.32 10Q273.87 10 272.27 8.55 270.67 7.1 270.67 4.45L270.67 4.45Q270.67 1.6 272.67-2.25L272.67-2.25Q272.32-2.15 271.97-2.1 271.62-2.05 271.27-2.05L271.27-2.05Q268.37-2.05 266.4-4.58 264.42-7.1 264.42-11.6L264.42-11.6Q264.42-15.65 266-18.75 267.57-21.85 270.02-23.6 272.47-25.35 275.12-25.35L275.12-25.35Q276.97-25.35 278.47-24.43 279.97-23.5 280.92-21.45L280.92-21.45Q280.97-21.95 280.97-22.35 280.97-22.75 280.97-23.1L280.97-23.1Q280.97-23.95 282.27-24.5 283.57-25.05 285.17-25.05L285.17-25.05Q286.62-25.05 287.87-24.5 289.12-23.95 289.52-22.65L289.52-22.65 289.62-22.35Q289.17-21.95 288.85-19.75 288.52-17.55 288.07-13.65L288.07-13.65Q287.77-11.2 287.32-8.08 286.87-4.95 286.1-1.78 285.32 1.4 284.07 4.08 282.82 6.75 280.92 8.38 279.02 10 276.32 10ZM274.67-7.8L274.67-7.8Q276.12-7.8 277.9-10.18 279.67-12.55 280.72-17L280.72-17Q279.82-18.95 278.9-19.78 277.97-20.6 277.02-20.6L277.02-20.6Q275.77-20.6 274.67-19.35 273.57-18.1 272.9-16.18 272.22-14.25 272.22-12.2L272.22-12.2Q272.22-10.1 272.92-8.95 273.62-7.8 274.67-7.8ZM274.07 4.25L274.07 4.25Q275.77 4.25 277.55 0.93 279.32-2.4 280.02-8.45L280.02-8.45Q276.22-3.3 274.75-0.53 273.27 2.25 273.27 3.4L273.27 3.4Q273.27 4.25 274.07 4.25ZM302.77 0.35L302.77 0.35Q299.12 0.35 296.72-1.13 294.32-2.6 293.12-5.03 291.92-7.45 291.92-10.25L291.92-10.25Q291.92-12.9 292.95-15.58 293.97-18.25 295.95-20.45 297.92-22.65 300.75-24 303.57-25.35 307.12-25.35L307.12-25.35Q311.52-25.35 313.55-23.38 315.57-21.4 315.57-18.6L315.57-18.6Q315.57-16.2 314.3-14.18 313.02-12.15 310.92-10.93 308.82-9.7 306.32-9.7L306.32-9.7Q305.02-9.7 303.67-10.1 302.32-10.5 301.02-11.35L301.02-11.35Q301.27-8.25 302.82-6.85 304.37-5.45 306.52-5.45L306.52-5.45Q308.02-5.45 309.52-6.03 311.02-6.6 312.3-7.53 313.57-8.45 314.27-9.5L314.27-9.5 314.62-9.25Q314.62-6.65 313.55-4.83 312.47-3 310.72-1.85 308.97-0.7 306.9-0.18 304.82 0.35 302.77 0.35ZM303.92-13.15L303.92-13.15Q305.52-13.15 306.52-14.08 307.52-15 308.02-16.25 308.52-17.5 308.52-18.45L308.52-18.45Q308.52-19.6 307.87-20.38 307.22-21.15 306.07-21.15L306.07-21.15Q305.17-21.15 304.1-20.5 303.02-19.85 302.17-18.28 301.32-16.7 301.07-13.9L301.07-13.9Q302.67-13.15 303.92-13.15Z" opacity="1" transform="matrix(1,0,0,1,0,0)" fill="#023047" class="wordmark-text-0" data-fill-palette-color="primary" id="text-0"></path></svg></g></svg></g></svg></g></svg></g><g><svg viewBox="0 0 65.09430383861816 78.22216893787127" height="78.22216893787127" width="65.09430383861816"><g><svg xmlns="http://www.w3.org/2000/svg" xmlns:xlink="http://www.w3.org/1999/xlink" version="1.1" x="0" y="0" viewBox="13.05 5.598000000000005 73.89999999999999 88.80375" enable-background="new 0 0 100 100" xml:space="preserve" height="78.22216893787127" width="65.09430383861816" class="icon-icon-0" data-fill-palette-color="accent" id="icon-0"><path fill-rule="evenodd" clip-rule="evenodd" d="M72.839 13.551c1.102 0.868 2.158 1.83 3.166 2.886 7.297 7.25 10.945 15.988 10.945 26.217 0 10.182-3.648 18.874-10.945 26.077-0.117 0.164-0.234 0.387-0.352 0.668-0.281 0.165-0.539 0.399-0.773 0.704L53.976 92.097c-2.697 3.073-5.36 3.073-7.988 0L24.345 69.223c-0.117-0.164-0.234-0.328-0.352-0.492C16.697 61.528 13.05 52.836 13.05 42.654c0-10.229 3.647-18.967 10.943-26.217 1.01-1.056 2.088-2.018 3.238-2.886 6.451-5.302 14.064-7.953 22.838-7.953C58.75 5.598 66.34 8.249 72.839 13.551zM82.058 42.548c0-8.798-3.143-16.34-9.431-22.627-6.287-6.287-13.853-9.431-22.698-9.431-8.797 0-16.34 3.144-22.627 9.431S17.87 33.75 17.87 42.548s3.145 16.34 9.432 22.627c6.287 6.288 13.83 9.431 22.627 9.431 8.846 0 16.411-3.144 22.698-9.431C78.915 58.889 82.058 51.346 82.058 42.548zM51.196 43.569c0.281-0.117 0.68-0.258 1.196-0.422l7.706-2.287c0.282 0.962 0.682 2.404 1.197 4.328 0.117 0.61 0.141 1.208 0.07 1.795-0.164 0.563-0.445 1.091-0.845 1.583-0.376 0.399-0.681 0.739-0.915 1.021-0.328 0.352-0.668 0.646-1.021 0.88-3.683 2.721-7.812 3.707-12.387 2.956-3.261-0.516-6.042-1.9-8.341-4.152-0.68-0.681-1.138-1.384-1.372-2.111-0.234-0.798-0.211-1.654 0.07-2.569 0.023-0.211 0.376-1.455 1.056-3.73l0.563 0.176c2.111 0.657 5.267 1.619 9.466 2.886 0.845 0.234 1.631 0.234 2.357 0C50.352 43.803 50.751 43.686 51.196 43.569zM62.422 38.396c-0.751-0.798-1.783-1.513-3.097-2.146-1.502-0.774-3.145-1.42-4.927-1.936-1.501-0.446-3.249-0.821-5.243-1.126-0.47-0.118-0.868-0.083-1.197 0.105-0.281 0.211-0.445 0.469-0.492 0.774-0.023 0.329 0.082 0.61 0.316 0.845 0.188 0.234 0.552 0.399 1.092 0.493 2.393 0.352 4.691 0.927 6.896 1.725 0.47 0.164 1.044 0.41 1.725 0.739 0.375 0.164 0.938 0.399 1.689 0.704l-0.07 0.176c-0.117 0.047-0.188 0.07-0.211 0.07-4.364 1.36-7.566 2.346-9.607 2.956-0.141 0.047-0.305 0.071-0.493 0.071-0.163 0-0.34-0.023-0.528-0.071-0.961-0.328-3.283-1.056-6.967-2.182-7.25-2.182-12.117-3.66-14.604-4.434-0.164-0.07-0.305-0.152-0.423-0.246-0.211-0.117-0.328-0.234-0.352-0.352-0.164-0.234-0.164-0.469 0-0.704 0.117-0.258 0.352-0.445 0.704-0.563 9.924-3.05 17.149-5.255 21.678-6.616 0.164-0.023 0.363-0.036 0.599-0.036 0.164 0 0.352 0.012 0.563 0.036 3.965 1.22 9.889 3.026 17.771 5.419l3.906 1.267c0.469 0.117 0.703 0.352 0.703 0.704 0 0.258-0.117 0.54-0.352 0.845-0.047 0.047-0.129 0.105-0.246 0.176-0.164 0.047-0.258 0.07-0.281 0.07l-6.088 1.865c-0.117 0.047-0.294 0.106-0.528 0.176 0.164 0.282 0.399 0.681 0.704 1.197 0.258 0.493 0.48 0.88 0.668 1.161 0.117 0.235 0.281 0.411 0.492 0.528 0.588 0.281 0.963 0.727 1.127 1.337 0.211 0.586 0.129 1.138-0.246 1.654-0.141 0.211-0.234 0.434-0.282 0.669-0.046 0.211-0.022 0.434 0.071 0.668 0 0.07 0.012 0.211 0.035 0.422 0.047 0.164 0.07 0.281 0.07 0.352 0.516 2.041 1.36 3.93 2.533 5.666 1.104 1.619 2.498 3.132 4.188 4.54l0.422 0.317c-0.609 0.586-1.172 1.079-1.688 1.478-0.634 0.445-1.267 0.774-1.9 0.985-0.61 0.188-1.22 0.247-1.829 0.176-0.54-0.047-1.057-0.247-1.549-0.599-0.353-0.281-0.716-0.704-1.092-1.267-0.469-0.728-0.844-1.548-1.125-2.463-0.235-0.751-0.435-1.63-0.599-2.639-0.282-2.135-0.341-4.505-0.177-7.108 0.023-0.141 0-0.27-0.07-0.387-0.047-0.141-0.129-0.27-0.246-0.387-0.352-0.305-0.574-0.704-0.668-1.197-0.07-0.446 0.012-0.868 0.246-1.267 0.164-0.235 0.223-0.469 0.176-0.704 0-0.165-0.07-0.387-0.211-0.669C63.032 39.147 62.703 38.725 62.422 38.396z" fill="#b1e5ff" data-fill-palette-color="accent"></path></svg></g></svg></g></svg></g><defs></defs></svg><rect width="395.52" height="65.27420807075526" fill="none" stroke="none" visibility="hidden"></rect></g></svg></g></svg>