<svg xmlns="http://www.w3.org/2000/svg" version="1.1" xmlns:xlink="http://www.w3.org/1999/xlink" xmlns:svgjs="http://svgjs.dev/svgjs" width="128" height="128" viewBox="0 0 128 128"><g transform="matrix(0.8046875,0,0,0.8046875,12.41184074821259,12.814873242367177)"><svg viewBox="0 0 98 98" data-background-color="#ffffff" preserveAspectRatio="xMidYMid meet" height="127" width="128" xmlns="http://www.w3.org/2000/svg" xmlns:xlink="http://www.w3.org/1999/xlink"><g id="tight-bounds" transform="matrix(1,0,0,1,0.08387967645792571,0.08387967645792571)"><svg viewBox="0 0 97.83224064708415 97.83224064708415" height="97.83224064708415" width="97.83224064708415"><g><svg></svg></g><g><svg viewBox="0 0 97.83224064708415 97.83224064708415" height="97.83224064708415" width="97.83224064708415"><g><path d="M0 48.916c0-27.016 21.9-48.916 48.916-48.916 27.016 0 48.916 21.9 48.916 48.916 0 27.016-21.9 48.916-48.916 48.916-27.016 0-48.916-21.9-48.916-48.916zM48.916 93.244c24.481 0 44.328-19.846 44.328-44.328 0-24.481-19.846-44.328-44.328-44.327-24.481 0-44.328 19.846-44.327 44.327 0 24.481 19.846 44.328 44.327 44.328z" data-fill-palette-color="tertiary" fill="#ffffff" stroke="transparent"></path><ellipse rx="46.95947551060039" ry="46.95947551060039" cx="48.916120323542074" cy="48.916120323542074" fill="#ffffff" stroke="transparent" stroke-width="0" fill-opacity="1" data-fill-palette-color="tertiary"></ellipse></g><g transform="matrix(1,0,0,1,27.74511809853992,23.47539391502934)"><svg viewBox="0 0 42.34200445000431 50.88145281702547" height="50.88145281702547" width="42.34200445000431"><g><svg viewBox="0 0 42.34200445000431 50.88145281702547" height="50.88145281702547" width="42.34200445000431"><g><svg viewBox="0 0 42.34200445000431 50.88145281702547" height="50.88145281702547" width="42.34200445000431"><g id="textblocktransform"><svg viewBox="0 0 42.34200445000431 50.88145281702547" height="50.88145281702547" width="42.34200445000431" id="textblock"><g><svg viewBox="0 0 42.34200445000431 50.88145281702547" height="50.88145281702547" width="42.34200445000431"><g><svg viewBox="0 0 42.34200445000431 50.88145281702547" height="50.88145281702547" width="42.34200445000431"><g><svg xmlns="http://www.w3.org/2000/svg" xml:space="preserve" viewBox="13.05 5.598000000000005 73.9 88.80399999999999" x="0" y="0" height="50.88145281702547" width="42.34200445000431" class="icon-icon-0" data-fill-palette-color="quaternary" id="icon-0"><path fill-rule="evenodd" d="M72.839 13.551a30 30 0 0 1 3.166 2.886Q86.95 27.311 86.95 42.654q0 15.273-10.945 26.077a3.5 3.5 0 0 0-0.352 0.668 2.7 2.7 0 0 0-0.773 0.704L53.976 92.097q-4.046 4.61-7.988 0L24.345 69.223l-0.352-0.492Q13.05 57.927 13.05 42.654q0-15.343 10.943-26.217a27 27 0 0 1 3.238-2.886q9.677-7.953 22.838-7.953 13.022 0 22.77 7.953m9.219 28.997q0-13.197-9.431-22.627T49.929 10.49q-13.196 0-22.627 9.431c-9.431 9.431-9.432 13.829-9.432 22.627s3.145 16.34 9.432 22.627q9.431 9.432 22.627 9.431 13.268 0 22.698-9.431 9.432-9.43 9.431-22.627m-30.862 1.021q0.422-0.176 1.196-0.422l7.706-2.287q0.424 1.443 1.197 4.328 0.176 0.915 0.07 1.795a4.5 4.5 0 0 1-0.845 1.583 22 22 0 0 0-0.915 1.021 5.7 5.7 0 0 1-1.021 0.88q-5.524 4.082-12.387 2.956-4.892-0.774-8.341-4.152-1.02-1.021-1.372-2.111-0.351-1.197 0.07-2.569 0.035-0.317 1.056-3.73l0.563 0.176q3.167 0.986 9.466 2.886 1.268 0.351 2.357 0 0.533-0.18 1.2-0.354m11.226-5.173q-1.126-1.197-3.097-2.146a27.3 27.3 0 0 0-4.927-1.936q-2.252-0.669-5.243-1.126-0.704-0.177-1.197 0.105-0.422 0.316-0.492 0.774-0.035 0.493 0.316 0.845 0.282 0.352 1.092 0.493 3.589 0.528 6.896 1.725 0.704 0.246 1.725 0.739 0.563 0.246 1.689 0.704l-0.07 0.176a1 1 0 0 1-0.211 0.07 967 967 0 0 1-9.607 2.956 1.6 1.6 0 0 1-0.493 0.071q-0.245 0-0.528-0.071-1.441-0.492-6.967-2.182-10.874-3.273-14.604-4.434a1.8 1.8 0 0 1-0.423-0.246q-0.316-0.175-0.352-0.352-0.246-0.351 0-0.704 0.176-0.387 0.704-0.563 14.885-4.575 21.678-6.616 0.245-0.035 0.599-0.036 0.246 0 0.563 0.036 5.948 1.83 17.771 5.419l3.906 1.267q0.703 0.176 0.703 0.704 0 0.387-0.352 0.845a1.4 1.4 0 0 1-0.246 0.176q-0.246 0.07-0.281 0.07l-6.088 1.865a7 7 0 0 1-0.528 0.176q0.246 0.423 0.704 1.197 0.386 0.74 0.668 1.161 0.176 0.352 0.492 0.528 0.881 0.422 1.127 1.337 0.317 0.88-0.246 1.654a1.9 1.9 0 0 0-0.282 0.669q-0.069 0.317 0.071 0.668 0 0.105 0.035 0.422 0.07 0.246 0.07 0.352a17.9 17.9 0 0 0 2.533 5.666q1.654 2.428 4.188 4.54l0.422 0.317a21 21 0 0 1-1.688 1.478 7.4 7.4 0 0 1-1.9 0.985q-0.915 0.282-1.829 0.176-0.81-0.07-1.549-0.599-0.529-0.422-1.092-1.267a9.9 9.9 0 0 1-1.125-2.463 19 19 0 0 1-0.599-2.639q-0.423-3.203-0.177-7.108a0.56 0.56 0 0 0-0.07-0.387 1 1 0 0 0-0.246-0.387q-0.527-0.457-0.668-1.197-0.105-0.669 0.246-1.267 0.246-0.352 0.176-0.704 0-0.247-0.211-0.669a21 21 0 0 0-0.986-1.267" clip-rule="evenodd" fill="#023047" data-fill-palette-color="quaternary"></path></svg></g></svg></g></svg></g></svg></g></svg></g><g></g></svg></g></svg></g></svg></g><defs></defs></svg><rect width="97.83224064708415" height="97.83224064708415" fill="none" stroke="none" visibility="hidden"></rect></g></svg></g></svg>