<svg id="SvgjsSvg1013" width="256" height="256" xmlns="http://www.w3.org/2000/svg" version="1.1" xmlns:xlink="http://www.w3.org/1999/xlink" xmlns:svgjs="http://svgjs.com/svgjs"><defs id="SvgjsDefs1014"></defs><g id="SvgjsG1015"><svg xmlns="http://www.w3.org/2000/svg" data-name="Layer 1" viewBox="0 0 24 24" width="256" height="256"><circle cx="8.5" cy="20.5" r="1.5" fill="#023047" class="color6563ff svgShape"></circle><circle cx="16.5" cy="20.5" r="1.5" fill="#023047" class="color6563ff svgShape"></circle><path fill="#b1e5ff" d="M19 18H7a3 3 0 0 1-.32-5.983L4.882 5.725A1.005 1.005 0 0 0 3.92 5H3a1 1 0 0 1 0-2h.921a3.012 3.012 0 0 1 2.885 2.176l2.155 7.55A1 1 0 0 1 8 14H7a1 1 0 0 0 0 2h12a1 1 0 0 1 0 2Z" class="colorb2b1ff svgShape"></path><path fill="#023047" d="m6.806 5.176 2.155 7.55A1 1 0 0 1 8 14h7.491a3.013 3.013 0 0 0 2.885-2.176l1.585-5.55A1 1 0 0 0 19 5H6.74c.02.06.048.115.066.176Z" class="color6563ff svgShape"></path></svg></g></svg>