<svg id="SvgjsSvg1001" width="256" height="256" xmlns="http://www.w3.org/2000/svg" version="1.1" xmlns:xlink="http://www.w3.org/1999/xlink" xmlns:svgjs="http://svgjs.com/svgjs"><defs id="SvgjsDefs1002"></defs><g id="SvgjsG1008"><svg xmlns="http://www.w3.org/2000/svg" enable-background="new 0 0 24 24" viewBox="0 0 24 24" width="256" height="256"><path fill="#d8f2ff" d="M9 22H5a3.003 3.003 0 0 1-3-3V5a3.003 3.003 0 0 1 3-3h4a3.003 3.003 0 0 1 3 3v14a3.003 3.003 0 0 1-3 3z" class="colord8d8ff svgShape"></path><path fill="#b1e5ff" d="m20.293 6.535-2.828-2.828a3.004 3.004 0 0 0-4.243 0l-1.229 1.228c0 .022.007.043.007.065v14c0 .027-.007.052-.008.08l8.301-8.302a3.004 3.004 0 0 0 0-4.243z" class="colorb2b1ff svgShape"></path><circle cx="7" cy="17" r="1" fill="#023047" class="color6563ff svgShape"></circle><path fill="#023047" d="m19.065 12.007-7.073 7.072c0-.027.008-.052.008-.079a3.003 3.003 0 0 1-3 3h10a3.003 3.003 0 0 0 3-3v-4a3 3 0 0 0-2.935-2.993z" class="color6563ff svgShape"></path></svg></g></svg>