<svg id="SvgjsSvg1014" width="256" height="256" xmlns="http://www.w3.org/2000/svg" version="1.1" xmlns:xlink="http://www.w3.org/1999/xlink" xmlns:svgjs="http://svgjs.com/svgjs"><defs id="SvgjsDefs1015"></defs><g id="SvgjsG1016"><svg xmlns="http://www.w3.org/2000/svg" enable-background="new 0 0 24 24" viewBox="0 0 24 24" width="256" height="256"><circle cx="12" cy="17" r="3" fill="#b1e5ff" class="colorb2b1ff svgShape"></circle><circle cx="19" cy="11" r="3" fill="#b1e5ff" class="colorb2b1ff svgShape"></circle><circle cx="5" cy="9" r="3" fill="#b1e5ff" class="colorb2b1ff svgShape"></circle><path fill="#023047" d="M19 8c.353 0 .686.072 1 .184V3a1 1 0 1 0-2 0v5.184A2.972 2.972 0 0 1 19 8zM5 6c.353 0 .686.072 1 .184V3a1 1 0 1 0-2 0v3.184A2.972 2.972 0 0 1 5 6zM12 14c.353 0 .686.072 1 .184V3a1 1 0 1 0-2 0v11.184A2.972 2.972 0 0 1 12 14zM5 12c-.353 0-.686-.072-1-.184V21a1 1 0 0 0 2 0v-9.184A2.972 2.972 0 0 1 5 12zM12 20c-.353 0-.686-.072-1-.184V21a1 1 0 0 0 2 0v-1.184A2.972 2.972 0 0 1 12 20zM19 14c-.353 0-.686-.072-1-.184V21a1 1 0 0 0 2 0v-7.184A2.972 2.972 0 0 1 19 14z" class="color6563ff svgShape"></path></svg></g></svg>