<svg id="SvgjsSvg1028" width="256" height="256" xmlns="http://www.w3.org/2000/svg" version="1.1" xmlns:xlink="http://www.w3.org/1999/xlink" xmlns:svgjs="http://svgjs.com/svgjs"><defs id="SvgjsDefs1029"></defs><g id="SvgjsG1030"><svg xmlns="http://www.w3.org/2000/svg" viewBox="0 0 24 24" width="256" height="256"><path fill="#b1e5ff" d="m19 9-7-7H6a3 3 0 0 0-3 3v14a3 3 0 0 0 3 3h10a3 3 0 0 0 3-3Z" class="colorb2b1ff svgShape"></path><path fill="#023047" d="M19 9h-5a2 2 0 0 1-2-2V2zm-1 13a1 1 0 0 1-1-1v-4a1 1 0 0 1 2 0v4a1 1 0 0 1-1 1z" class="color6563ff svgShape"></path><path fill="#023047" d="M20 20h-4a1 1 0 0 1 0-2h4a1 1 0 0 1 0 2zm-7-2H8a1 1 0 0 1 0-2h5a1 1 0 0 1 0 2zm1-4H8a1 1 0 0 1 0-2h6a1 1 0 0 1 0 2zm-5-4H8a1 1 0 0 1 0-2h1a1 1 0 0 1 0 2z" class="color6563ff svgShape"></path></svg></g></svg>