<svg id="SvgjsSvg1035" width="256" height="256" xmlns="http://www.w3.org/2000/svg" version="1.1" xmlns:xlink="http://www.w3.org/1999/xlink" xmlns:svgjs="http://svgjs.com/svgjs"><defs id="SvgjsDefs1036"></defs><g id="SvgjsG1037"><svg xmlns="http://www.w3.org/2000/svg" enable-background="new 0 0 24 24" viewBox="0 0 24 24" width="256" height="256"><path fill="#d8f2ff" d="M12 15.894c-.176 0-.348-.047-.5-.134l-9-5.197a1 1 0 0 1 0-1.733l9-5.193c.31-.178.69-.178 1 0l9 5.193a1 1 0 0 1 0 1.732l-9 5.198a1.002 1.002 0 0 1-.5.134z" class="colord8d8ff svgShape"></path><path fill="#023047" d="m21.5 13.434-2.487-1.435-6.513 3.76a1.003 1.003 0 0 1-1 0L4.987 12 2.5 13.434a1 1 0 0 0 0 1.732l9 5.197a1.003 1.003 0 0 0 1 0l9-5.197a1 1 0 0 0 0-1.732z" class="colorb2b1ff svgShape"></path></svg></g></svg>