<svg id="SvgjsSvg1001" width="256" height="256" xmlns="http://www.w3.org/2000/svg" version="1.1" xmlns:xlink="http://www.w3.org/1999/xlink" xmlns:svgjs="http://svgjs.com/svgjs"><defs id="SvgjsDefs1002"></defs><g id="SvgjsG1008"><svg xmlns="http://www.w3.org/2000/svg" enable-background="new 0 0 24 24" viewBox="0 0 24 24" width="256" height="256"><path fill="#b1e5ff" d="M19 18H5a3.003 3.003 0 0 1-3-3V9a3.003 3.003 0 0 1 3-3h14a3.003 3.003 0 0 1 3 3v6a3.003 3.003 0 0 1-3 3z" class="colorb2b1ff svgShape"></path><path fill="#d8f2ff" d="M18 6V2.999A1 1 0 0 0 17 2H6.999A1 1 0 0 0 6 3v3h12z" class="colord8d8ff svgShape"></path><path fill="#023047" d="M17 22H7a1 1 0 0 1-1-.999V15a1 1 0 0 1 .999-1H17a1 1 0 0 1 1 .999V21a1 1 0 0 1-.999 1H17z" class="color6563ff svgShape"></path><circle cx="7" cy="11" r="1" fill="#023047" class="color6563ff svgShape"></circle></svg></g></svg>